<?xml version="1.0" encoding="UTF-8"?>
<!DOCTYPE svg PUBLIC "-//W3C//DTD SVG 1.1//EN" "http://www.w3.org/Graphics/SVG/1.1/DTD/svg11.dtd">
<!-- Creator: CorelDRAW 2026 (Evaluation Version) -->
<svg xmlns="http://www.w3.org/2000/svg" xml:space="preserve" width="7.78341in" height="3.21121in" version="1.1" style="shape-rendering:geometricPrecision; text-rendering:geometricPrecision; image-rendering:optimizeQuality; fill-rule:evenodd; clip-rule:evenodd"
viewBox="0 0 6816.83 2812.43"
 xmlns:xlink="http://www.w3.org/1999/xlink"
 xmlns:xodm="http://www.corel.com/coreldraw/odm/2003">
 <defs>
  <style type="text/css">
   <![CDATA[
    .fil0 {fill:#FF7A1A}
    .fil1 {fill:white}
   ]]>
  </style>
 </defs>
 <g id="Layer_x0020_1">
  <metadata id="CorelCorpID_0Corel-Layer"/>
  <path class="fil0" d="M3366.03 2795.36c-225.13,-162.79 -449.04,-318.9 -668.04,-487.99 -14.8,-11.43 -29.88,-19.95 -48.62,-21.29 -138.55,-9.95 -271.31,-42.64 -405.01,-78.53 -66.82,48.33 -135.81,75.33 -221.65,92.81 240.72,169.47 453.23,434.8 780.7,438.43 -102.55,-85.02 -211.78,-168.03 -297.1,-272.04l-22.04 -26.63 33.39 21.65c138.06,89.53 272.2,192.42 422.43,261.56 131.73,60.63 283.51,76.1 425.94,72.02l0 0z"/>
  <path class="fil0" d="M21.81 2812.43l29.08 -24.26c0.79,-0.66 1.56,-1.31 2.31,-1.94 37.8,-31.47 84.62,-51.78 133.48,-56.71 9.17,-0.93 18.95,-3.51 25.31,-0.43 4.74,2.3 1.13,24.53 7.85,24.82 97.92,4.18 191.84,-55.52 292.18,-51.32 98.93,4.13 197.02,1.22 296.68,3.46 18.17,-25.93 25.64,-57.42 42.56,-83.9 -31.63,-15.41 -62.88,-25.34 -97.04,-22.02 -14.83,1.44 -29.02,-0.48 -40.46,-9.73 -14.3,-11.56 -29.38,-22.96 -42.16,-32.81 27.84,-49.64 61.2,-99.05 107.89,-133.37 9.58,-7.04 19.86,-15.28 25.73,-23.31 1.81,-2.48 3.49,-6.59 5.2,-10.71l4.48 -10.81 1.88 -1.23 2.19 -1.43 22.27 8.03 30.62 11.04 17.39 -34.9c12.53,-25.16 21.26,-52.6 28.42,-79.03 6.36,-23.5 17.46,-48.66 14.67,-72.89 -37.75,-141.26 -256.72,-221.85 -318,-277.4 -1.76,-0.65 -3.56,-1.25 -5.41,-1.78 63.86,110.24 51.82,249 -19.66,350.38l-17.76 25.2 33.46 5.71 27.08 4.62 3.74 7.07 4.28 8.07 -12.64 13.92c-59.79,65.86 -103.06,150.49 -180.35,202.19 -38.04,-2.39 -80.17,1.57 -118.57,-7.56 -19.14,-4.55 -40.19,-4.01 -58.37,4.52 -23.21,10.88 -44.52,25.37 -56.94,49.16 -7.07,13.54 -19.92,20.63 -34.75,16.26 -18.25,-5.38 -35.38,4.82 -49.39,15.75 -46.68,36.46 -73.27,94.54 -92.97,148.44l-14.28 38.9z"/>
  <path class="fil0" d="M841.77 2764.05l24.67 -18.7c1.8,-1.36 3.58,-2.77 5.37,-3.98 22.67,-15.35 47.76,-26.92 74.46,-33.94 21.88,-5.75 44.21,-7.3 66.89,-6.23 9.9,0.47 19.26,-0.33 24.38,4.74 3.15,3.13 3.68,26.93 9.59,25.36 221.31,-58.95 450.3,-26.38 675.8,-25.55 224.3,0.83 450.15,-2.56 676.25,5.79 12.52,0.47 12.45,-13.39 0.09,-15.24 -239.24,-35.82 -475.23,-98.04 -718.1,-79.28 -7.9,8.79 -17.44,-10.73 -26.83,-17.66 -15.92,-11.74 -35.7,-22.04 -56.89,-24.09 -46.98,-4.54 -90.05,-16.71 -132.7,-41.6 13.37,-17.13 24.21,-44.63 32.02,-68.22 10.09,-30.49 47.69,-55.95 39.6,-86.7 11.79,-3.22 21.84,-10.82 31.91,-16.79 9.09,0.91 14.34,6.7 21.42,9.65l15.94 6.65c0,0 5.86,-19.07 5.86,-19.07 20.3,-66.06 34.35,-140.69 21.15,-210.12 -3.34,-21.62 -24.28,-85.43 -24.22,-85.38 0.04,0.03 0.11,0.08 0.2,0.15 0.27,0.2 45.92,49.44 67.88,60.72 0,0 -3.62,-68 -0.46,-81.22 0,0 11.55,20 25.26,81.45 8.08,36.49 14.75,72.58 14.54,110.96 -0.02,5.08 -0.08,15.47 -0.08,15.47 0,0 0.33,0.03 1.97,0.2 1.63,0.16 113.8,10.8 200.76,4.44 6.89,-0.1 7.39,-0.1 7.39,-0.1l-20.16 -16.5c-2.87,-2.35 -20.87,-17.09 -20.87,-17.09 0,0 12.02,2.34 19.05,3.72 77.62,16.91 196.4,-15.34 223.62,-31.97 4.43,-2.71 8.59,-5.76 12.41,-9.23 -130.69,-43.64 -257.65,-89.44 -382.46,-145.7 -61.49,-27.72 -120.35,-59.65 -178.45,-93.06 -103.49,-56.22 -255.81,-157.88 -255.07,-157.64 0.74,0.24 40.75,13.62 40.75,13.62 161.12,53.86 334.44,68.6 501.49,42.97 -21.79,-16.32 -37.82,-27.43 -54.49,-38.51l-80.77 -53.66c0,0 63.77,17.44 63.77,17.44 116.11,31.75 232.04,30.38 350.99,20.28 0,0 -76.24,-85.23 -77.47,-86.64 -4.03,-4.68 -4.8,-5.58 -4.8,-5.58l30.72 10.18c134.61,44.6 268.68,81.86 414.45,82.71 -168.45,-120.99 -306.34,-278.4 -460.99,-414.64 -161.73,-142.48 -345.72,-264.82 -541.74,-350.9 -171.99,-75.53 -361.09,-141.02 -549.83,-111.02 -106.89,16.99 -201.93,93.91 -233.11,199.63 -11.79,39.99 -6.93,79.34 6.23,117.47 48.26,115.43 102.34,175.92 106.79,180.43 1.51,1.53 2.44,2.48 2.44,2.48 0,0 -0.02,-0.16 -0.07,-0.5 -0.12,-0.82 -18.23,-37.08 -30.02,-81.91 -7.69,-29.24 -13.15,-65.39 -10.33,-105.71 7.35,-73.9 46.71,-140.99 121.16,-168.14 129.23,-47.12 255.48,-6.41 377.73,33.7 270.49,88.74 517,246.64 728.57,434.57 -43.77,-8.47 -86.66,-14.64 -129.08,-20.92 -115.14,-13.73 -223.38,-46.23 -248.72,-54.23l-8.84 -2.79 5.71 4.97c12.41,10.79 48.04,41.36 62.23,51.28 43.49,30.39 86.17,61.21 124.29,93.63 -156.26,-11.51 -304.53,-19.24 -456.06,-56.74l-54.48 -13.48 46.95 33.6c68.35,48.93 132.57,81.77 211.05,112.17l41.57 16.1 -42.9 3.75c-142.05,12.43 -288.49,1.23 -419.33,-52.95 -71.8,-27.28 -173.32,-102.53 -179.06,-106.5 -0.39,-0.27 -0.6,-0.41 -0.6,-0.41 0,0 0.01,0.02 0.25,0.73 0.24,0.71 13.08,48.76 106.31,138.03 2.74,2.66 5.5,5.31 8.28,7.94 48.97,46.49 185.47,164.89 185.47,164.89l-41.58 -16.73c-247.09,-99.42 -474.84,-283.11 -565.02,-541.13 -0.32,0.37 -0.64,0.74 -0.94,1.11 -18.85,22.88 -26.03,67.79 -26.03,67.79 -4.05,-22.39 -7.83,-45.07 -10.82,-67.86 -18.11,-138.26 -2.53,-264.76 111.68,-358.95 64.53,-53.22 148.01,-84.02 229.93,-98.03 -0.32,-45.56 7.31,-64.96 29.01,-103.94 13.92,-25 -14.93,-28.37 -36.05,-30.03 -4.73,-0.37 -20.38,-1.6 -20.38,-1.6 0,0 0.05,-0.02 1.02,-0.41 0.97,-0.39 106.39,-29.6 156.99,-59.13 17.32,-9.48 33.97,-20.1 49.65,-31.93 13.82,-10.42 32.34,-14.23 49.09,-14.94 43.28,-1.86 91.69,-20.76 119.12,-50.78 -53.3,-3.44 -111.93,33.23 -157.19,-9.47 -2.06,-17.16 -8.35,-36.11 -19.89,-51.3 -6.11,-8.04 -13.43,-12.96 -23.28,-19.51 -121.02,13.84 -233.78,55.89 -348.78,94.69l-37.89 12.79 28.51 -20.31c91.77,-65.45 190.16,-120.28 276.3,-188.08 -57.36,4.56 -101.68,7.34 -154.43,10.54 -4.88,0.29 -10.35,-2.47 -12.26,-5.22l-3.34 -4.83 17.51 -0.92 31.92 -1.69 -25.46 -19.18c-24.14,-18.19 -51.4,-34.55 -72.05,-54.15 -27.53,1.3 -52.47,-1.65 -77.68,-4.85 -74.08,-7.39 -91.84,-17.72 -106.45,-26.05 -0.61,-0.33 -0.62,-0.34 -0.62,-0.34 0,0 0.03,0 1.17,0.13 1.13,0.13 69.61,16.38 115.89,-7.86 73.12,-30.61 134.71,-102.79 213.48,-91.79 91.14,12.73 176.37,84.64 265.49,43.41 49.15,-22.17 32.76,-21.23 10.32,-45.06 -0.45,-0.38 -0.91,-0.75 -1.38,-1.12 -4.53,-3.59 -24.39,-15.49 -31.85,-25.71 0,0 0,0 0,0 14.9,0.61 68.6,25.98 93.28,42.87 17.87,-10.5 37.15,-16.26 58.4,-18.21 5.5,-0.5 8.73,0.6 11.88,-7.87l1.72 -4.62 -7.25 -5.51c-19.82,-15.05 -85.47,-62.7 -155.21,-95.67 -135.4,-64.01 -245.01,-24.75 -382.21,8.54 -14.98,3.63 -29.95,7.1 -44.95,10.2 -205.83,42.57 -431.5,77.53 -573.14,253.6 76.24,-34.52 143.62,-48.55 223.14,-46.96 -167.49,115.31 -315.44,269.31 -381.66,467.29 55.12,-49.9 126.24,-98.07 202.98,-117.55 -148.91,217.27 -278.48,477.49 -256.76,750.74 0.34,4.31 4.84,60.92 4.84,60.92 0,0 0.04,-0.13 0.82,-2.83 0.78,-2.7 28.17,-122.71 93.11,-200.38 1.65,-3.1 1.78,-3.35 1.78,-3.35l-4.07 49.67c-20.61,251.23 125.75,515.91 374.73,593.31 -147.91,-157.85 -229.06,-386.18 -160.17,-600.34 16.46,206.87 116.56,398.37 265.91,540.82 76.09,72.58 170.69,119.01 258.13,175.44 96.72,62.41 184.63,142.6 252.49,234.65 5.34,-43.91 -13.46,-74.14 -21.06,-115.38 51.93,50.83 117.11,81.32 184.42,109.12 3.19,-31.79 -1.46,-62.41 -10.36,-91.88 -14.27,-53.15 -62.8,-132.43 -64.25,-135.72 -1.07,-2.42 -1.91,-4.33 -1.91,-4.33 0,0 0.24,0.14 2.01,1.17 1.77,1.03 46.21,30.71 89.63,90.92 19.51,26.66 36.09,55.47 49.94,86.43 18.19,40.66 9.57,85.64 1.52,128.18l-6.03 31.88 41.44 4.63 7.95 0.89 1.85 4.47 4.05 9.81 -14.44 35.31c-24.95,61.02 -51.39,125.5 -108.96,163.6 -71.98,3.02 -163.19,-46.5 -216.34,31.21 -11.67,17.06 -22.68,23.2 -40.4,16.76 -12.62,-4.58 -24.6,1.1 -35.12,6.99 -53.73,30.05 -86.67,91.06 -102.63,147.98l-9.52 33.99zm297.11 -2214.23c-30.47,-4.58 -53.44,1.49 -84.33,-4.04 -15.46,-2.77 -17.28,-18.71 -1.18,-25.79 11.36,-5 16.39,-8.96 25.94,-13.62 17.97,-8.76 36.23,-6.52 52.16,5.22 5.88,4.33 8.84,7.76 15.49,12.7 13.17,9.79 6.7,27.75 -8.08,25.53z"/>
  <path class="fil1" d="M3369.83 2288.21c7.11,-0.13 14.23,-0.23 21.37,-0.32l68.58 -0.87 742.5 -9.38c260.85,-3.29 470.4,-214.28 471.92,-475.14 1.79,-306.17 1.86,-317.87 1.86,-317.87 0.09,-15.23 0.28,-30.38 0.65,-45.42 5.29,-215.95 -74.28,-466.39 -289.03,-548.18 -203.64,-77.56 -410.54,-83.68 -619.65,-89.13 -202.8,-5.29 -411.48,-3.47 -608.24,11.98 -185.71,14.58 -405.31,55.01 -515.45,207.74 -127.76,177.17 -90.59,470.92 -93.35,670.98 -0.07,5.14 -0.16,10.29 -0.27,15.45 265.1,204.87 540.18,393.02 819.11,580.17zm74.22 -356.57c-130.18,-5.22 -321.42,-10.4 -351.52,-156.61 -28.82,-140.02 -11.44,-267.28 -8.59,-402.46 1.59,-75.34 45.2,-151.72 116.04,-175.45 64.46,-21.59 134.39,-31.94 200.06,-34.95 125.24,-5.73 265.88,-4.94 386.08,-1.24 130.99,4.03 324.7,9.85 354.55,157.47 27.85,137.71 8.59,262.85 7.11,395.59 -0.82,73.4 -37.37,149.55 -104.54,178.1 -63.09,26.82 -134.44,33.79 -200.61,37.33 -129.42,6.91 -274.08,7.2 -398.59,2.21z"/>
  <path class="fil1" d="M5890.57 2269.77l11.02 0.07c50.14,0.32 93.03,-24.01 118.46,-67.22l0 0c45.38,-77.1 46.18,-78.43 46.98,-79.76 50.05,-82.27 96.89,-167.27 145.25,-251.15 149.97,-260.12 299.71,-519.79 450.41,-779.48l154.13 -265.6 -129.72 -0.13 -434.71 -0.42 -234.61 418.56c-84.49,150.73 -168.93,301.54 -256.43,451.89l-100.39 172.5 -153.48 -272.06c-31.69,-56.19 -63.28,-112.47 -94.82,-168.78l-337.44 -602.52 -381.19 0.2 -190.83 0.1c0,0 224.03,389.9 224.03,389.9 170.41,296.59 340.29,593.1 511.63,889.27 0,0 54.19,93.67 54.19,93.67 23.74,41.04 62.68,65.99 108.61,70.19 5.17,0.47 478.36,0.71 488.9,0.78z"/>
  <path class="fil0" d="M3161.9 2251.17l-57.74 -36.43c-129,-81.39 -252.52,-167.59 -379.41,-250.31 -63.29,-41.26 -123.79,-92.03 -200.62,-96.12 -27.33,-1.45 -54.01,-5.29 -80.35,-10.36 -40.69,-7.84 -137.96,-30.49 -138.28,-30.5 -1.11,-0.04 -1.23,-0.04 -1.23,-0.04 0,0 0.1,0.13 0.84,1.08 0.74,0.94 78.22,56.42 107.45,77.22 51.44,36.61 102.11,74.05 157.71,106.12l75.93 43.79 -76.24 -26.5c-142.92,-49.67 -278.87,-111.74 -402.86,-198.2 -37.41,22.02 -75.06,14.87 -120.79,27.75 71.14,54.53 149.15,99.32 229.5,143.62l51.3 28.3 -53.91 -15.35c-114.35,-32.54 -228.79,-54.89 -332.08,-114.5 -20.35,9.1 -38.86,20.18 -61.52,22.59 -40.74,4.33 -77.98,6.62 -119.22,4.77l-59.49 -2.68 85.92 36.85c410.34,176 853.43,263.73 1298.6,285.21l76.48 3.69z"/>
  <path class="fil0" d="M1530.29 545.55c116.48,-103.21 83.3,-306.06 -69.24,-348.97 -32.86,-9.24 -57.35,-16.79 -88.01,-8.77 -38.2,9.99 -53.68,65.09 -92.57,62.54 -37.44,-2.46 -60.29,35.26 -92.28,53.69 -29.66,17.09 -43.62,52.77 -75.16,66.91 -3.82,1.71 -7.62,3.49 -11.4,5.32 -71.15,29.4 -131.65,82.82 -131.8,82.93 -0.39,0.3 -0.39,0.3 -0.39,0.3l53.98 -12.84c7.7,-1.83 14.72,-4.28 22.67,-6.1 31.4,-7.15 61.06,-14.7 92.28,-22.25 17.75,-4.3 34.37,-5.12 51.99,-15.03 13.82,-7.78 25.43,-1.8 38.86,1.04 59.28,12.51 123.52,16.35 184.23,18.83 30.69,1.26 66.61,-12.34 84.96,19.83 19,33.35 22.75,57.25 21.51,96.15 -0.43,13.45 1.22,14.53 10.37,6.42zm-225.85 -248.8c9.85,-19.77 21.14,-30.43 43.47,-39.01 17.05,-6.55 24.51,12.41 7.77,20.58 -19.92,9.72 -29.05,16.9 -51.24,18.43z"/>
  <path class="fil0" d="M1164.72 452.74c-1.37,2.46 -1.87,5.41 -1.18,8.37 0.53,2.29 1.56,4.11 3.24,5.74 1.69,1.64 0.2,0.19 0,0 10.02,9.75 0.39,0.38 0.58,0.57 0,0 3.33,3.24 13,12.65 4.39,4.27 9.51,7.18 14.98,8.66 22.17,8.18 77.71,-26.83 78.55,-27.63 3.44,-3.25 4.57,-8.46 2.44,-12.97 -1.47,-3.11 -4.03,-5.24 -7.22,-6.07 -0.69,-0.18 -88.75,-9.85 -104.39,10.68z"/>
  <path class="fil0" d="M1055.54 281.8c1.13,-2.37 2.02,-4.87 2.63,-7.49 3.5,-21 -6.21,-11.41 10.74,-29.22 0.56,-0.67 0.61,-0.72 0.31,-0.37 0.83,-0.99 -96.42,-69.3 -138.26,-28.18 -0.1,0.11 -0.18,0.18 -0.21,0.21 -8.46,6.44 -30.15,12.44 -30.15,12.44 0,0 7.11,8.44 7.11,8.44 1.12,1.32 2.01,2.31 3.02,3.39 0,0.99 -0.04,2.04 -0.14,3.19 -5.23,59.91 60.83,85.56 108.71,67.52 6.22,-2.34 26.12,-10.7 36.25,-29.95zm-43.03 5.61c-15.11,8.2 -27.32,5.69 -38.39,-7.89 -18.12,-22.22 -0.44,-55.64 20.69,-57.25 25.14,-1.92 47.12,49.17 17.71,65.13z"/>
 </g>
</svg>
