<?xml version="1.0" encoding="UTF-8"?>
<!DOCTYPE svg PUBLIC "-//W3C//DTD SVG 1.1//EN" "http://www.w3.org/Graphics/SVG/1.1/DTD/svg11.dtd">
<!-- Creator: CorelDRAW 2026 (Evaluation Version) -->
<svg xmlns="http://www.w3.org/2000/svg" xml:space="preserve" width="7.64953in" height="3.15598in" version="1.1" style="shape-rendering:geometricPrecision; text-rendering:geometricPrecision; image-rendering:optimizeQuality; fill-rule:evenodd; clip-rule:evenodd"
viewBox="0 0 11182.18 4613.45"
 xmlns:xlink="http://www.w3.org/1999/xlink"
 xmlns:xodm="http://www.corel.com/coreldraw/odm/2003">
 <defs>
  <style type="text/css">
   <![CDATA[
    .fil1 {fill:#FF7A1A}
    .fil0 {fill:white}
   ]]>
  </style>
 </defs>
 <g id="Layer_x0020_1">
  <metadata id="CorelCorpID_0Corel-Layer"/>
  <path class="fil0" d="M5521.57 4585.45c-369.3,-267.04 -736.6,-523.11 -1095.85,-800.49 -24.28,-18.74 -49.02,-32.72 -79.76,-34.92 -227.28,-16.33 -445.05,-69.95 -664.38,-128.81 -109.62,79.28 -222.79,123.57 -363.6,152.24 394.87,278 743.48,713.24 1280.65,719.19 -168.21,-139.47 -347.4,-275.63 -487.35,-446.26l-36.15 -43.68 54.78 35.52c226.48,146.86 446.51,315.64 692.95,429.07 216.08,99.45 465.06,124.82 698.71,118.14l0 0z"/>
  <path class="fil0" d="M35.79 4613.45l47.7 -39.79c1.29,-1.07 2.56,-2.15 3.8,-3.18 62,-51.61 138.8,-84.94 218.96,-93.02 15.04,-1.51 31.08,-5.76 41.51,-0.7 7.78,3.78 1.86,40.23 12.88,40.71 160.63,6.85 314.69,-91.07 479.28,-84.19 162.28,6.78 323.18,2 486.67,5.67 29.81,-42.54 42.05,-94.2 69.82,-137.62 -51.89,-25.27 -103.14,-41.57 -159.18,-36.12 -24.33,2.37 -47.61,-0.78 -66.37,-15.96 -23.46,-18.97 -48.2,-37.66 -69.15,-53.82 45.67,-81.43 100.4,-162.48 176.98,-218.77 15.71,-11.56 32.58,-25.06 42.21,-38.24 2.97,-4.06 5.73,-10.81 8.52,-17.57l7.34 -17.73 3.08 -2.01 3.59 -2.35 36.53 13.18 50.23 18.11 28.52 -57.25c20.55,-41.27 34.88,-86.28 46.61,-129.64 10.43,-38.55 28.65,-79.82 24.06,-119.58 -61.93,-231.72 -421.12,-363.92 -521.64,-455.04 -2.88,-1.06 -5.84,-2.04 -8.87,-2.92 104.74,180.84 85,408.46 -32.25,574.75l-29.14 41.33 54.89 9.36 44.43 7.58 6.14 11.6 7.01 13.24 -20.72 22.84c-98.08,108.03 -169.06,246.86 -295.84,331.67 -62.39,-3.93 -131.51,2.56 -194.49,-12.4 -31.41,-7.46 -65.93,-6.57 -95.75,7.41 -38.06,17.84 -73.02,41.62 -93.4,80.64 -11.6,22.21 -32.68,33.84 -57.02,26.68 -29.94,-8.82 -58.04,7.9 -81.01,25.83 -76.58,59.8 -120.19,155.08 -152.5,243.5l-23.42 63.81z"/>
  <path class="fil0" d="M1380.82 4534.09l40.48 -30.67c2.95,-2.23 5.88,-4.54 8.8,-6.52 37.18,-25.19 78.35,-44.17 122.15,-55.68 35.89,-9.43 72.52,-11.98 109.73,-10.22 16.24,0.77 31.6,-0.55 39.99,7.78 5.17,5.13 6.04,44.18 15.73,41.6 363.04,-96.69 738.66,-43.28 1108.57,-41.91 367.94,1.35 738.41,-4.21 1109.3,9.5 20.55,0.76 20.42,-21.97 0.14,-25.01 -392.44,-58.75 -779.56,-160.83 -1177.95,-130.04 -12.96,14.42 -28.61,-17.61 -44.02,-28.97 -26.12,-19.26 -58.55,-36.15 -93.32,-39.51 -77.06,-7.45 -147.71,-27.41 -217.68,-68.24 21.93,-28.1 39.72,-73.21 52.53,-111.91 16.55,-50.01 78.22,-91.78 64.95,-142.22 19.34,-5.29 35.83,-17.74 52.34,-27.53 14.91,1.49 23.52,10.99 35.14,15.83l26.15 10.91c0,0 9.61,-31.27 9.61,-31.27 33.29,-108.36 56.35,-230.78 34.7,-344.67 -5.47,-35.47 -39.83,-140.14 -39.72,-140.06 0.06,0.05 0.17,0.13 0.33,0.25 0.43,0.33 75.32,81.1 111.35,99.59 0,0 -5.94,-111.55 -0.75,-133.24 0,0.01 18.95,32.81 41.44,133.61 13.25,59.87 24.19,119.06 23.86,182.01 -0.05,8.33 -0.14,25.38 -0.14,25.38 0,0 0.55,0.05 3.22,0.32 2.68,0.27 186.67,17.71 329.32,7.29 11.3,-0.16 12.12,-0.17 12.12,-0.17l-33.08 -27.07c-4.7,-3.85 -34.24,-28.02 -34.24,-28.02 0,0 19.72,3.84 31.26,6.09 127.33,27.73 322.17,-25.16 366.82,-52.44 7.27,-4.44 14.09,-9.44 20.36,-15.14 -214.39,-71.58 -422.65,-146.72 -627.37,-238.99 -100.87,-45.46 -197.43,-97.84 -292.72,-152.64 -169.77,-92.23 -419.62,-258.99 -418.41,-258.59 1.21,0.4 66.85,22.34 66.85,22.34 264.29,88.35 548.62,112.53 822.64,70.49 -35.73,-26.78 -62.03,-45 -89.38,-63.17l-132.5 -88.01c0,0 104.6,28.61 104.6,28.61 190.47,52.08 380.63,49.84 575.76,33.26 0,0 -125.07,-139.8 -127.08,-142.12 -6.6,-7.68 -7.87,-9.14 -7.87,-9.14l50.39 16.7c220.81,73.16 440.74,134.29 679.85,135.68 -276.31,-198.46 -502.51,-456.68 -756.19,-680.17 -265.3,-233.72 -567.11,-434.41 -888.66,-575.61 -282.13,-123.89 -592.32,-231.33 -901.93,-182.12 -175.34,27.87 -331.25,154.05 -382.39,327.48 -19.34,65.59 -11.38,130.15 10.22,192.68 79.16,189.35 167.87,288.58 175.18,295.97 2.48,2.52 4.02,4.07 4.02,4.07 0,0 -0.04,-0.26 -0.12,-0.83 -0.2,-1.34 -29.91,-60.82 -49.24,-134.35 -12.61,-47.98 -21.58,-107.26 -16.95,-173.41 12.06,-121.22 76.62,-231.28 198.75,-275.81 211.99,-77.29 419.08,-10.51 619.63,55.28 443.69,145.57 848.08,404.59 1195.12,712.86 -71.81,-13.9 -142.16,-24.02 -211.73,-34.31 -188.88,-22.52 -366.42,-75.84 -408.01,-88.96l-14.5 -4.58 9.37 8.15c20.36,17.7 78.79,67.85 102.08,84.11 71.34,49.85 141.35,100.4 203.89,153.58 -256.32,-18.88 -499.55,-31.56 -748.11,-93.07l-89.37 -22.12 77.01 55.12c112.13,80.26 217.47,134.14 346.21,184l68.19 26.41 -70.38 6.16c-233.02,20.38 -473.24,2.02 -687.85,-86.85 -117.77,-44.76 -284.32,-168.19 -293.73,-174.7 -0.64,-0.44 -0.98,-0.67 -0.98,-0.67 0,0 0.02,0.04 0.41,1.21 0.4,1.17 21.44,79.97 174.39,226.41 4.5,4.37 9.03,8.71 13.57,13.02 80.33,76.25 304.25,270.49 304.25,270.49l-68.21 -27.45c-405.32,-163.1 -778.92,-464.41 -926.85,-887.67 -0.53,0.61 -1.04,1.22 -1.55,1.83 -30.92,37.53 -42.7,111.2 -42.7,111.2 -6.65,-36.73 -12.85,-73.93 -17.74,-111.32 -29.71,-226.8 -4.14,-434.31 183.2,-588.81 105.85,-87.3 242.79,-137.82 377.16,-160.8 -0.52,-74.73 12,-106.55 47.6,-170.5 22.83,-41.01 -24.49,-46.53 -59.13,-49.26 -7.77,-0.61 -33.43,-2.64 -33.43,-2.64 0,0 0.09,-0.03 1.67,-0.67 1.59,-0.63 174.53,-48.56 257.52,-96.99 28.41,-15.56 55.73,-32.97 81.45,-52.37 22.67,-17.1 53.05,-23.34 80.53,-24.52 71,-3.06 150.41,-34.05 195.41,-83.29 -87.44,-5.64 -183.62,54.52 -257.86,-15.53 -3.37,-28.14 -13.7,-59.24 -32.63,-84.15 -10.03,-13.2 -22.02,-21.26 -38.18,-32 -198.52,22.7 -383.49,91.67 -572.13,155.32l-62.16 20.98 46.76 -33.32c150.54,-107.36 311.94,-197.31 453.23,-308.52 -94.1,7.49 -166.79,12.05 -253.33,17.28 -8,0.49 -16.98,-4.05 -20.11,-8.56l-5.47 -7.92 28.71 -1.51 52.37 -2.77 -41.76 -31.46c-39.6,-29.83 -84.31,-56.68 -118.19,-88.83 -45.16,2.12 -86.06,-2.7 -127.41,-7.96 -121.53,-12.13 -150.66,-29.06 -174.62,-42.73 -1,-0.55 -1.02,-0.56 -1.02,-0.56 0,0 0.06,0.01 1.92,0.22 1.86,0.21 114.18,26.87 190.1,-12.89 119.95,-50.21 220.98,-168.61 350.19,-150.57 149.51,20.88 289.32,138.84 435.5,71.22 80.61,-36.37 53.73,-34.83 16.92,-73.91 -0.74,-0.62 -1.49,-1.23 -2.25,-1.83 -7.43,-5.89 -40.02,-25.41 -52.25,-42.17 0,0 0,0 0,0 24.44,1 112.52,42.61 153.02,70.32 29.31,-17.23 60.94,-26.68 95.79,-29.86 9.03,-0.83 14.32,0.98 19.48,-12.91l2.83 -7.59 -11.9 -9.04c-32.51,-24.68 -140.2,-102.84 -254.6,-156.93 -222.1,-105.01 -401.91,-40.59 -626.98,14.02 -24.57,5.96 -49.12,11.64 -73.72,16.72 -337.63,69.83 -707.83,127.18 -940.16,416 125.06,-56.62 235.59,-79.63 366.03,-77.03 -274.76,189.16 -517.44,441.76 -626.06,766.53 90.41,-81.84 207.08,-160.86 332.96,-192.82 -244.26,356.41 -456.81,783.26 -421.19,1231.5 0.56,7.07 7.94,99.94 7.94,99.94 0,0 0.06,-0.22 1.34,-4.64 1.28,-4.43 46.22,-201.29 152.74,-328.7 2.7,-5.08 2.93,-5.5 2.93,-5.5l-6.69 81.48c-33.79,412.12 206.28,846.29 614.71,973.25 -242.62,-258.93 -375.75,-633.49 -262.74,-984.78 27,339.35 191.2,653.48 436.18,887.15 124.82,119.06 279.99,195.22 423.44,287.78 158.66,102.38 302.87,233.92 414.19,384.91 8.77,-72.04 -22.08,-121.62 -34.55,-189.26 85.18,83.38 192.11,133.39 302.53,179 5.24,-52.16 -2.39,-102.38 -17,-150.73 -23.41,-87.17 -103.01,-217.23 -105.39,-222.63 -1.74,-3.96 -3.13,-7.1 -3.13,-7.1 0,0 0.4,0.23 3.3,1.92 2.9,1.69 75.8,50.37 147.03,149.13 31.99,43.73 59.2,90.99 81.91,141.78 29.83,66.7 15.7,140.49 2.5,210.27l-9.89 52.29 67.98 7.59 13.04 1.46 3.03 7.34 6.65 16.09 -23.68 57.92c-40.92,100.09 -84.31,205.87 -178.73,268.37 -118.07,4.96 -267.7,-76.28 -354.88,51.19 -19.14,27.98 -37.2,38.05 -66.27,27.5 -20.7,-7.52 -40.34,1.8 -57.61,11.46 -88.13,49.3 -142.17,149.37 -168.34,242.75l-15.63 55.75zm487.38 -3632.17c-49.98,-7.52 -87.65,2.44 -138.33,-6.62 -25.36,-4.53 -28.34,-30.69 -1.93,-42.31 18.63,-8.2 26.88,-14.7 42.56,-22.34 29.47,-14.36 59.43,-10.69 85.56,8.56 9.64,7.1 14.49,12.73 25.4,20.83 21.61,16.07 10.99,45.53 -13.26,41.88z"/>
  <path class="fil1" d="M5527.79 3753.53c11.66,-0.21 23.34,-0.39 35.06,-0.53l112.5 -1.42 1217.99 -15.38c427.89,-5.4 771.64,-351.5 774.13,-779.41 2.93,-502.24 3.04,-521.42 3.04,-521.42 0.14,-24.98 0.47,-49.83 1.07,-74.5 8.68,-354.25 -121.85,-765.06 -474.12,-899.23 -334.05,-127.22 -673.45,-137.27 -1016.47,-146.21 -332.68,-8.68 -674.99,-5.69 -997.74,19.64 -304.64,23.91 -664.87,90.24 -845.53,340.77 -209.57,290.62 -148.6,772.49 -153.13,1100.66 -0.12,8.44 -0.26,16.89 -0.45,25.34 434.87,336.07 886.11,644.71 1343.65,951.7zm121.74 -584.91c-213.55,-8.56 -527.25,-17.05 -576.62,-256.89 -47.28,-229.69 -18.76,-438.45 -14.08,-660.19 2.61,-123.59 74.14,-248.88 190.35,-287.8 105.73,-35.42 220.45,-52.4 328.17,-57.33 205.44,-9.39 436.13,-8.1 633.31,-2.03 214.88,6.61 532.64,16.15 581.61,258.32 45.68,225.89 14.08,431.18 11.65,648.91 -1.34,120.41 -61.31,245.33 -171.48,292.16 -103.49,43.99 -220.53,55.44 -329.08,61.23 -212.29,11.33 -449.59,11.82 -653.83,3.62z"/>
  <path class="fil1" d="M9662.76 3723.29l18.09 0.12c82.25,0.53 152.6,-39.39 194.32,-110.27l0 0c74.44,-126.48 75.74,-128.66 77.07,-130.83 82.1,-134.96 158.94,-274.39 238.26,-411.97 246,-426.7 491.64,-852.65 738.85,-1278.63l252.82 -435.68 -212.78 -0.21 -713.09 -0.7 -384.86 686.59c-138.6,247.26 -277.11,494.64 -420.65,741.27l-164.7 282.96 -251.75 -446.28c-52,-92.17 -103.8,-184.49 -155.54,-276.86l-553.53 -988.36 -625.29 0.32 -313.02 0.16c0,0 367.48,639.59 367.48,639.59 279.53,486.51 558.19,972.91 839.27,1458.73 0,0 88.89,153.65 88.89,153.65 38.95,67.32 102.82,108.24 178.17,115.13 8.47,0.78 784.68,1.16 801.98,1.28z"/>
  <path class="fil0" d="M5186.72 3692.77l-94.72 -59.76c-211.6,-133.51 -414.23,-274.92 -622.38,-410.61 -103.81,-67.68 -203.05,-150.96 -329.09,-157.66 -44.83,-2.38 -88.59,-8.67 -131.8,-17 -66.74,-12.85 -226.3,-50.01 -226.83,-50.02 -1.81,-0.06 -2.01,-0.07 -2.01,-0.07 0,0 0.17,0.22 1.38,1.77 1.21,1.55 128.31,92.55 176.26,126.68 84.38,60.04 167.5,121.46 258.71,174.07l124.55 71.83 -125.06 -43.47c-234.44,-81.49 -457.46,-183.3 -660.85,-325.13 -61.37,36.13 -123.13,24.4 -198.13,45.51 116.7,89.46 244.65,162.92 376.46,235.61l84.15 46.41 -88.43 -25.17c-187.57,-53.38 -375.3,-90.03 -544.74,-187.83 -33.39,14.93 -63.75,33.11 -100.92,37.06 -66.83,7.1 -127.91,10.86 -195.57,7.82l-97.59 -4.39 140.94 60.45c673.12,288.71 1399.96,432.62 2130.19,467.85l125.46 6.05z"/>
  <path class="fil0" d="M2510.25 894.91c191.07,-169.31 136.64,-502.04 -113.57,-572.44 -53.9,-15.16 -94.07,-27.54 -144.37,-14.39 -62.67,16.4 -88.05,106.78 -151.86,102.6 -61.41,-4.02 -98.89,57.83 -151.38,88.07 -48.67,28.03 -71.56,86.56 -123.3,109.75 -6.26,2.81 -12.49,5.72 -18.7,8.72 -116.72,48.22 -215.95,135.84 -216.2,136.04 -0.64,0.48 -0.64,0.49 -0.64,0.49l88.55 -21.06c12.63,-3 24.15,-7.03 37.19,-10 51.51,-11.73 100.16,-24.11 151.38,-36.49 29.13,-7.05 56.38,-8.4 85.29,-24.66 22.66,-12.75 41.72,-2.94 63.74,1.7 97.25,20.53 202.63,26.81 302.21,30.88 50.34,2.06 109.27,-20.25 139.36,32.54 31.17,54.7 37.33,93.91 35.28,157.71 -0.71,22.05 2,23.84 17.02,10.53zm-370.47 -408.12c16.17,-32.43 34.68,-49.91 71.31,-63.99 27.97,-10.75 40.2,20.36 12.74,33.77 -32.68,15.95 -47.65,27.72 -84.05,30.23z"/>
  <path class="fil0" d="M1910.58 742.66c-2.25,4.03 -3.07,8.87 -1.94,13.73 0.87,3.76 2.55,6.73 5.31,9.42 2.77,2.69 0.32,0.32 0,0 16.45,16.01 0.64,0.63 0.96,0.93 0,0 5.47,5.32 21.33,20.76 7.19,7 15.6,11.78 24.56,14.2 36.37,13.42 127.48,-44.01 128.86,-45.32 5.64,-5.33 7.5,-13.88 4.01,-21.28 -2.41,-5.1 -6.61,-8.6 -11.84,-9.96 -1.13,-0.29 -145.58,-16.16 -171.25,17.52z"/>
  <path class="fil0" d="M1731.49 462.25c1.85,-3.89 3.31,-7.98 4.32,-12.28 5.73,-34.44 -10.19,-18.71 17.62,-47.93 0.92,-1.09 0.99,-1.18 0.5,-0.6 1.36,-1.61 -158.16,-113.68 -226.81,-46.23 -0.17,0.18 -0.29,0.3 -0.35,0.35 -13.88,10.57 -49.45,20.42 -49.45,20.42 0,0 11.65,13.85 11.65,13.85 1.84,2.16 3.3,3.78 4.96,5.57 0,1.61 -0.06,3.35 -0.22,5.22 -8.58,98.28 99.78,140.36 178.32,110.77 10.2,-3.84 42.84,-17.55 59.46,-49.13zm-70.58 9.21c-24.78,13.46 -44.81,9.32 -62.98,-12.94 -29.74,-36.45 -0.74,-91.26 33.93,-93.91 41.24,-3.15 77.29,80.65 29.05,106.85z"/>
 </g>
</svg>
